<svg width="16" height="16" xmlns="http://www.w3.org/2000/svg">
 <title/>

 <g>
  <title>background</title>
  <rect fill="none" id="canvas_background" height="402" width="582" y="-1" x="-1"/>
 </g>
 <g>
  <title>Layer 1</title>
  <path fill="#ffffff" id="Oval 194" d="m8.5,13c2.48528,0 4.5,-2.01472 4.5,-4.5c0,-0.16901 -0.00932,-0.33585 -0.02746,-0.5l2.00852,0c0.01255,0.16503 0.01894,0.33177 0.01894,0.5c0,3.58985 -2.91015,6.5 -6.5,6.5c-3.58985,0 -6.5,-2.91015 -6.5,-6.5c0,-3.42162 2.64378,-6.22575 6,-6.48105l0,-2.01895l4,3l-4,3l0,-1.97254c-2.24998,0.24874 -4,2.15627 -4,4.47254c0,2.48528 2.01472,4.5 4.5,4.5zm0,0"/>
 </g>
</svg>